<?xml version="1.0" encoding="UTF-8"?>
<!DOCTYPE svg PUBLIC "-//W3C//DTD SVG 1.1//EN" "http://www.w3.org/Graphics/SVG/1.1/DTD/svg11.dtd">
<!-- Creator: CorelDRAW -->
<svg xmlns="http://www.w3.org/2000/svg" xml:space="preserve" width="512px" height="512px" version="1.1" shape-rendering="geometricPrecision" text-rendering="geometricPrecision" image-rendering="optimizeQuality" fill-rule="evenodd" clip-rule="evenodd"
viewBox="0 0 512 512"
 xmlns:xlink="http://www.w3.org/1999/xlink"
 xmlns:xodm="http://www.corel.com/coreldraw/odm/2003">
 <g id="Layer_x0020_1">
  <metadata id="CorelCorpID_0Corel-Layer"/>
  <path fill="black" fill-rule="nonzero" d="M256 0c70.691,0 134.692,28.654 181.018,74.982 46.328,46.327 74.982,110.327 74.982,181.018 0,70.691 -28.654,134.692 -74.982,181.018 -46.326,46.328 -110.327,74.982 -181.018,74.982 -70.691,0 -134.692,-28.654 -181.018,-74.982 -46.328,-46.326 -74.982,-110.327 -74.982,-181.018 0,-70.691 28.654,-134.692 74.982,-181.018 46.327,-46.328 110.327,-74.982 181.018,-74.982zm89.946 174.244c-16.999,-7.782 -35.053,-13.329 -53.474,-16.444 -2.507,4.492 -4.802,9.191 -6.829,13.924 -9.792,-1.476 -19.758,-2.231 -29.673,-2.231 -9.917,0 -19.883,0.755 -29.678,2.212 -2,-4.722 -4.324,-9.405 -6.845,-13.906 -18.442,3.143 -36.464,8.703 -53.486,16.477 -33.844,50.066 -43.015,98.881 -38.429,147.002 19.796,14.629 42.028,25.784 65.576,32.914 5.288,-7.138 10.024,-14.736 14.045,-22.644 -7.653,-2.847 -15.094,-6.405 -22.126,-10.56 1.855,-1.344 3.67,-2.73 5.422,-4.075 20.496,9.625 42.892,14.646 65.551,14.646 22.66,0 45.055,-5.021 65.552,-14.649 1.773,1.448 3.587,2.834 5.422,4.077 -7.042,4.162 -14.511,7.734 -22.167,10.588 4.025,7.912 8.739,15.499 14.046,22.626 23.585,-7.111 45.82,-18.268 65.62,-32.907l-0.005 0.005c5.38,-55.805 -9.193,-104.172 -38.522,-147.055zm-132.994 117.44c-12.779,0 -23.336,-11.597 -23.336,-25.865 0,-14.267 10.19,-25.967 23.296,-25.967 13.105,0 23.581,11.7 23.357,25.967 -0.223,14.268 -10.292,25.865 -23.317,25.865zm86.095 0c-12.8,0 -23.318,-11.597 -23.318,-25.865 0,-14.267 10.192,-25.967 23.318,-25.967 13.125,0 23.52,11.7 23.296,25.967 -0.224,14.268 -10.272,25.865 -23.296,25.865zm120.735 -199.466c-41.914,-41.913 -99.82,-67.837 -163.781,-67.837 -63.962,0 -121.867,25.924 -163.78,67.837 -41.913,41.914 -67.837,99.82 -67.837,163.781 0,63.962 25.924,121.867 67.837,163.78 41.913,41.913 99.82,67.837 163.78,67.837 63.963,0 121.867,-25.924 163.781,-67.837 41.913,-41.913 67.837,-99.82 67.837,-163.78 0,-63.963 -25.924,-121.867 -67.837,-163.781z"/>
 </g>
</svg>
